<svg class="svg-icon" style="width: 1em; height: 1em;vertical-align: middle;fill: currentColor;overflow: hidden;" viewBox="0 0 1024 1024" version="1.1" xmlns="http://www.w3.org/2000/svg"><path d="M771.925333 691.746133A155.8528 155.8528 0 0 1 853.333333 828.7232a24.610133 24.610133 0 0 1-49.220266 0 106.666667 106.666667 0 1 0-213.333334 0 24.610133 24.610133 0 0 1-49.2544 0c0-59.118933 32.938667-110.592 81.408-136.977067a106.666667 106.666667 0 1 1 148.992 0z m-74.478933-18.909866a57.4464 57.4464 0 1 0 0-114.8928 57.4464 57.4464 0 0 0 0 114.8928z m-76.3904-221.218134h-324.266667c-14.677333 0-23.722667-9.728-23.722666-25.6s9.045333-25.6 23.7568-25.6h324.232533c14.677333 0 23.722667 9.728 23.722667 25.6s-9.045333 25.6-23.722667 25.6z m-138.9568 114.961067H296.823467c-14.677333 0-23.7568-9.728-23.7568-25.6s9.045333-25.6 23.7568-25.6h185.275733c14.677333 0 23.722667 9.728 23.722667 25.6s-9.045333 25.6-23.722667 25.6zM477.866667 800.836267A26.282667 26.282667 0 1 1 477.866667 853.333333H267.229867A96.426667 96.426667 0 0 1 170.666667 757.077333V266.922667A96.426667 96.426667 0 0 1 267.229867 170.666667H688.469333A96.426667 96.426667 0 0 1 785.066667 266.922667v175.069866a26.282667 26.282667 0 0 1-52.667734 0V266.922667c0-24.200533-19.626667-43.793067-43.895466-43.793067H267.264c-24.234667 0-43.895467 19.592533-43.895467 43.793067v490.0864c0 24.200533 19.626667 43.793067 43.895467 43.793066H477.866667z" fill="#979797" /></svg>