<svg width="19" height="19" viewBox="0 0 19 19" fill="none" xmlns="http://www.w3.org/2000/svg">
<path d="M4.72069 7.6988C2.37391 5.99023 -1.24756 3.67531 0.766015 1.58435C0.87835 1.4677 0.998287 1.36279 1.1243 1.26964C3.21745 -0.277717 6.09964 1.90236 8.24464 3.377C9.34824 4.13569 10.6739 5.18292 12.1619 6.61588C13.6499 8.04884 14.7464 9.33407 15.5461 10.4083C17.1006 12.4962 19.3877 15.2942 17.9204 17.4442C17.832 17.5736 17.7317 17.6974 17.6194 17.814C15.6058 19.905 13.156 16.3733 11.3602 14.0926C10.5959 13.1219 9.5816 11.981 8.23974 10.6888C6.89788 9.39657 5.71957 8.42604 4.72069 7.6988Z" fill="#5B68FF"/>
</svg>
